<svg xmlns="http://www.w3.org/2000/svg" width="25" height="25" fill="none" xmlns:v="https://vecta.io/nano"><path fill-rule="evenodd" d="M20.121.272c-1.821-.764-3.952.078-4.759 1.88l-1.889 4.216-5.803-3.342A5.16 5.16 0 0 0 .744 4.782c-2.343 3.808 1.211 8.4 5.592 7.224l5.24-1.407-3.369 7.517c-1.124 2.508.02 5.403 2.554 6.467 4.163 1.746 8.436-2.454 6.656-6.544l-2.46-5.651c-.313-.719-.376-1.47-.236-2.172 1.727.379 3.066 1.896 3.012 3.787l-.029 1.01c-.104 3.652 4.829 4.999 6.768 1.848 1.043-1.694.49-3.873-1.234-4.866l-7.076-4.076a3.88 3.88 0 0 1 1.991-.778l.802-.078c3.723-.362 4.58-5.357 1.165-6.789z" fill="#fff"/></svg>